<svg xmlns="http://www.w3.org/2000/svg" version="1.1" xmlns:xlink="http://www.w3.org/1999/xlink" xmlns:svgjs="http://svgjs.dev/svgjs" viewBox="0 0 6.241912186485385 4.957275137636072"><g transform="matrix(1,0,0,1,3.126637458941722,4.68183799569243)"><g transform="matrix(1,0,0,1,0,0)"><path d=" M -1.8779576118765289 -0.8831284614728585 L -1.8938144305108326 -0.8809927407985205 L -1.9441350804682822 -0.9549375322841948 L -2.4900342520782575 -0.9026011736456426 L -2.5181968000394503 -0.8120314718004145 L -2.534053618673754 -0.8098957511260765 L -2.5606166445608327 -1.0071149328902305 L -2.078143281880622 -1.2981208680600305 L -2.62028334090015 -1.4501148034860938 L -2.6457785064500596 -1.6394055759330959 L -2.629921687815756 -1.6415412966074339 L -2.5819067786415077 -1.5622408016721014 L -2.0381067901391536 -1.6526375521935637 L -2.0080754865879147 -1.7293325377337758 L -1.992218667953611 -1.7314682584081138 L -1.9592484800435184 -1.4866786207410483 L -1.9751052986778221 -1.4845429000667103 L -2.023767484759897 -1.5536659182713106 L -2.507056678849347 -1.4784824435154162 L -1.9314677095133113 -1.3178762842976566 L -1.9250605474902973 -1.2703058283947453 L -2.4319664150297906 -0.9659188354827062 L -1.9515534294588441 -1.0175072381989123 L -1.9239814850358568 -1.1049703040080623 L -1.908124666401553 -1.1071060246824003 L -1.8779576118765289 -0.8831284614728585 M -1.93604678184496 -1.8543801675123373 L -1.951677871844018 -1.8577961630394642 L -1.973248619765137 -1.9464454881024533 L -2.508613452232871 -2.0634433349065517 L -2.5651981543070415 -1.991873987479197 L -2.5808292443060994 -1.995289983006324 L -2.523824818947168 -2.256133797365603 L -2.50819372894811 -2.252717801838476 L -2.486409481306546 -2.1650454199004283 L -1.951044648838812 -2.04804757309633 L -1.894673446485087 -2.118639977398743 L -1.879042356486029 -2.1152239818716163 L -1.93604678184496 -1.8543801675123373 M -1.8510853268176222 -2.238946156570261 L -1.8653002880722727 -2.2462901933708763 L -1.8636585049057857 -2.3366135267240815 L -2.3505209278775636 -2.5881467871451433 L -2.4232375173173026 -2.534543637795013 L -2.437452478571953 -2.541887674595628 L -2.310308841461307 -2.787984191316764 L -2.2960938802066564 -2.7806401545161488 L -2.302325686373528 -2.681432470378787 L -1.8145748283233343 -2.4294402076576866 L -1.7057912832142255 -2.6399993212421964 L -1.8260129533989888 -2.7820266074163182 L -1.818668916598374 -2.7962415686709687 L -1.6169941537980208 -2.692048046562244 L -1.8510853268176222 -2.238946156570261 M -1.5336484343552041 -2.7837721127921626 L -1.545479154215754 -2.794544023838082 L -1.5198499097567932 -2.882106240738197 L -1.9250520649806233 -3.251044194060925 L -2.009834908742333 -3.217341532390405 L -2.0216656286028827 -3.2281134434363237 L -1.8419093630241083 -3.4255385811092482 L -1.8300786431635587 -3.4147666700633295 L -1.8550346431821494 -3.3279438731544984 L -1.4498324879583193 -2.9590059198317706 L -1.3657228886369797 -2.9919691615110064 L -1.3538921687764298 -2.981197250465087 L -1.5336484343552041 -2.7837721127921626 M -1.2985646800078663 -3.0670489838345003 L -1.306756072399295 -3.080793113151763 L -1.2695333100198947 -3.1413939874098684 L -1.364136839931369 -3.8021172064118107 L -1.3168913954032782 -3.8302751177573473 L -0.7848706214951161 -3.4337415175036483 L -0.7088864470983633 -3.437118682178915 L -0.7006950547069346 -3.423374552861652 L -0.9274731884417708 -3.2882165784030772 L -0.9356645808331996 -3.30196070772034 L -0.8779905404445046 -3.3770786487547104 L -1.0337103029404189 -3.493814913763559 L -1.2407312507816897 -3.370432065867663 L -1.2107737143636632 -3.177578375180234 L -1.1212103266162474 -3.1913769104360514 L -1.1130189342248187 -3.1776327811187888 L -1.2985646800078663 -3.0670489838345003 M -1.2491319762336608 -3.429452636958433 L -1.0807663920971915 -3.5297971937534354 L -1.288332032061322 -3.6866458631972048 L -1.2491319762336608 -3.429452636958433 M -0.6109364414369367 -3.451769553719963 L -0.6132591265006816 -3.46760006647523 L -0.5389238683365073 -3.5189349414986046 L -0.6181854961368041 -4.059151189272075 L -0.7034351082054672 -4.089092859935924 L -0.7057577932692122 -4.104923372691191 L -0.5504208868581594 -4.127714719879188 L -0.10310394621497476 -3.717303274359425 L -0.16349375787234377 -4.1288966059963546 L -0.2710642285772503 -4.152531195739459 L -0.27338691364099527 -4.168361708494725 L -0.023066930698343424 -4.205089166065193 L -0.020744245634598424 -4.189258653309926 L -0.09423526456805276 -4.139058353150239 L -0.005682896512776092 -3.535520054355703 L -0.04822739954255484 -3.5292778382468883 L -0.5351360602665274 -3.975319266941564 L -0.4695202072157322 -3.5281072816052848 L -0.36194973651082557 -3.5044726918621807 L -0.3596270514470806 -3.488642179106914 L -0.6109364414369367 -3.451769553719963 M 0.13782623765105198 -3.544995537717168 L 0.1416565392522321 -3.560530298405508 L 0.21072465651500522 -3.5774889297705625 L 0.607718361716902 -4.114052996802702 L 0.6611191015830711 -4.100886335048645 L 0.7609849974152578 -3.44490477825788 L 0.8174186291950267 -3.3939121787541735 L 0.8135883275938465 -3.3783774180658335 L 0.5572647762362348 -3.441577394485305 L 0.5610950778374149 -3.457112155173645 L 0.6549150463758671 -3.4700277853728982 L 0.6261576712055701 -3.6625089880221826 L 0.39216533833744727 -3.7202029058899577 L 0.2779577058335457 -3.5619416766584946 L 0.3513758085448235 -3.508821226789576 L 0.3475455069436434 -3.493286466101236 L 0.13782623765105198 -3.544995537717168 M 0.42766321858099277 -3.7680975872044304 L 0.6179640370131589 -3.7211763925899746 L 0.5805075456648512 -3.9786293227653253 L 0.42766321858099277 -3.7680975872044304 M 0.8579641755350909 -3.353329810699786 L 0.8672233378841404 -3.3663784854445233 L 0.9376995170364579 -3.356833425356161 L 1.5037716055622081 -3.7104821077969348 L 1.5486264249972423 -3.678653737222077 L 1.4010324790719837 -3.0317371837731706 L 1.434840689280209 -2.9636049232608666 L 1.4255815269311594 -2.950556248516129 L 1.2102783936429955 -3.1033324272754474 L 1.2195375559920452 -3.116381102020185 L 1.3115596847266457 -3.093999685104525 L 1.355375140459044 -3.2836209018471725 L 1.1588294771164396 -3.4230870347297317 L 0.9945506245199528 -3.317718829897431 L 1.0433804469380927 -3.241379793732354 L 1.0341212845890433 -3.228331118987617 L 0.8579641755350909 -3.353329810699786 M 1.2094153176368572 -3.454631808288007 L 1.3692615832598882 -3.34120706951215 L 1.428804583330932 -3.594465102242683 L 1.2094153176368572 -3.454631808288007 M 1.6437676793352674 -2.603275167374956 Q 1.6048170956229788 -2.6638297050122963 1.5917316512478457 -2.72853690048162 Q 1.5786462068727125 -2.793244095950944 1.590887125208425 -2.8546233263004557 Q 1.6031280435441375 -2.916002556649967 1.6389541245988553 -2.9693667948274283 Q 1.6747802056535734 -3.0227310330048893 1.7336526728009871 -3.0605996560585034 Q 1.798412386663142 -3.102255141417478 1.8684976169718548 -3.1134493583429586 Q 1.9385828472805673 -3.1246435752684385 2.0064220731281424 -3.108829358993147 Q 2.074261298975718 -3.093015142717855 2.1317124543741657 -3.0526838305226964 Q 2.1891636097726135 -3.0123525183275373 2.229196154143577 -2.9501159102002714 Q 2.257868111598456 -2.9055410422172296 2.2728381723141595 -2.8711768561775726 Q 2.2878082330298626 -2.836812670137916 2.29451576505072 -2.806051346788795 Q 2.3012232970715782 -2.7752900234396742 2.3045962528635413 -2.744167311969986 L 2.1665482136857723 -2.6482364051715344 L 2.157892528416375 -2.661692969090943 L 2.2198661740996526 -2.787165146248764 Q 2.220634857624536 -2.834031009365094 2.2138977608527206 -2.8629897995174325 Q 2.207160664080906 -2.8919485896697714 2.1871443918954245 -2.9230668937334046 Q 2.147111847524461 -2.9853035018606704 2.0871397900941515 -3.015690214871058 Q 2.027167732663842 -3.0460769278814457 1.9588532670979264 -3.041372271204986 Q 1.890538801532011 -3.0366676145285263 1.825779087669856 -2.995012129169551 Q 1.7441986689084399 -2.942537037223829 1.705101548532796 -2.8757731609258457 Q 1.6660044281571524 -2.8090092846278623 1.6669539909822353 -2.7400629407767108 Q 1.6679035538073184 -2.6711165969255593 1.7073951178489442 -2.6097210240432562 Q 1.723083547399727 -2.585331001939328 1.741445110143212 -2.5632549286105615 Q 1.7598066728866968 -2.541178855281795 1.7839054548871103 -2.5221986364712397 L 1.9277224817757923 -2.614706272787925 L 1.9140576775082543 -2.711738603092468 L 1.9275142414276631 -2.7203942883618653 L 2.0703330483727207 -2.498360983691619 L 2.056876484453312 -2.489705298422222 L 1.9820023106213238 -2.5247746310787926 L 1.8491187419171615 -2.4392997390434927 Q 1.811022415668002 -2.4504653078296137 1.7727420898040172 -2.4757806520253207 Q 1.7344617639400324 -2.501095996221028 1.7007457987184027 -2.5341033240312867 Q 1.667029833496773 -2.567110651841545 1.6437676793352674 -2.603275167374956 M 1.8566921526038993 -2.2331359245447966 L 1.872364933164504 -2.2363552333990593 L 1.927844635640719 -2.165060053946654 L 2.4646373698414292 -2.275321382205141 L 2.4875215701682376 -2.362713105928858 L 2.503194350728842 -2.36593241478312 L 2.559129842071651 -2.093617852542614 Q 2.5802565564277478 -1.9907652301136458 2.5498191958837837 -1.9227500326713334 Q 2.5193818353398196 -1.8547348352290212 2.4449361276769475 -1.839443118171275 Q 2.390081395714831 -1.8281755371813566 2.3403149394293328 -1.8567464984669624 Q 2.2905484831438345 -1.8853174597525684 2.2555440392776984 -1.9414217279469093 L 2.0202780140931287 -1.7001503094285662 L 1.9975155648739542 -1.6270758891055523 L 1.9818427843133495 -1.62385658025129 L 1.9494484889673342 -1.7815639346423744 L 2.2085996133676744 -2.030804169600616 L 2.1918994486861885 -2.1121067187587528 L 1.9499508987818537 -2.0624086383210773 L 1.924879908849659 -1.9806930005041954 L 1.9092071282890544 -1.977473691649933 L 1.8566921526038993 -2.2331359245447966 M 2.498614834382656 -2.114876588262334 L 2.486743632982564 -2.172669966579564 L 2.2438155342931916 -2.122770679338497 L 2.2568939765136324 -2.0591000083110402 Q 2.269368798323899 -1.9983679836386972 2.3122916557300925 -1.9658390993650614 Q 2.3552145131362856 -1.9333102150914254 2.409089696313364 -1.9443765892779523 Q 2.4649239770605185 -1.9558453770712623 2.488811643840286 -2.0010767751904757 Q 2.5126993106200546 -2.0463081733096886 2.498614834382656 -2.114876588262334 M 1.9125902775857808 -1.2280170938601656 Q 1.9252071876332923 -1.2989030133424788 1.961089561448861 -1.3549829139251277 Q 1.9969719352644297 -1.4110628145077768 2.049741084481194 -1.4478855913033808 Q 2.102510233697958 -1.4847083680989848 2.1679317581297806 -1.4984569731560975 Q 2.2333532825616027 -1.5122055782132104 2.3062082553628693 -1.499238198442157 Q 2.379063228164136 -1.4862708186711036 2.4357230095074085 -1.4507930907543876 Q 2.4923827908506815 -1.4153153628376718 2.5292055676462852 -1.3625462136209077 Q 2.5660283444418894 -1.3097770644041433 2.5803568302596256 -1.2447601858711737 Q 2.5946853160773626 -1.1797433073382042 2.582068406029851 -1.108857387855891 Q 2.5694514959823396 -1.0379714683735775 2.533569122166771 -0.9818915677909286 Q 2.497686748351202 -0.9258116672082796 2.444917599134438 -0.8889888904126757 Q 2.392148449917674 -0.8521661136170716 2.3266393080549657 -0.8379252452302205 Q 2.261130166192258 -0.8236843768433694 2.1882751933909916 -0.8366517566144228 Q 2.115420220589725 -0.8496191363854763 2.0588480566773377 -0.8855891276319304 Q 2.0022758927649504 -0.9215591188783846 1.9654531159693467 -0.9743282680951488 Q 1.9286303391737427 -1.027097417311913 1.9143018533560061 -1.0921142958448826 Q 1.8999733675382695 -1.1571311743778523 1.9125902775857808 -1.2280170938601656 M 1.9583119133241897 -1.1995648175820843 Q 1.9476225867561592 -1.1395086913540133 1.9710666362179439 -1.0886129494414192 Q 1.9945106856797286 -1.0377172075288252 2.0470571255233243 -1.0019558923997167 Q 2.0996035653669196 -0.9661945772706082 2.177381171465569 -0.9523510231906999 Q 2.2728802574347964 -0.9353532415989136 2.3498659558235198 -0.954153567223767 Q 2.426851654212243 -0.9729538928486204 2.4758706379887108 -1.0200934646489923 Q 2.5248896217651784 -1.0672330364493643 2.5366303575038347 -1.1331963226342947 Q 2.5473196840718653 -1.1932524488623657 2.5245431328015897 -1.245045100003551 Q 2.5017665815313146 -1.2968377511447362 2.4493077591186045 -1.333091329603583 Q 2.3968489367058945 -1.3693449080624296 2.3190713306072452 -1.383188462142338 Q 2.2235722446380173 -1.4001862437341241 2.1460066654886703 -1.380981272210418 Q 2.068441086339323 -1.3617763006867118 2.0193344851319703 -1.3141444655566015 Q 1.9702278839246172 -1.2665126304264915 1.9583119133241897 -1.1995648175820843" fill="#525252" fill-rule="nonzero"></path></g><g transform="matrix(1,0,0,1,0,0)"><g clip-path="url(#SvgjsClipPath1039)"><g clip-path="url(#SvgjsClipPath10374df25a90-e1b2-4b11-9209-f3f7a77b4b7c)"><path d=" M 0.00011503667274759266 -0.1875 C -0.6008940600976538 -0.1875 -1.1151079872799083 -0.5125361188486486 -1.3099225925781521 -1.0157640437834987 C -1.4564217953223566 -1.39411966045071 -1.3731927625893912 -1.7753511939366147 -1.0876717408295793 -2.035506629355556 L -1.0102520600703726 -1.950437009858626 C -1.2593639749055334 -1.7234696545273982 -1.3313194137092237 -1.3895757118771752 -1.2026508952409136 -1.0572922826454207 C -1.0678279147806002 -0.7090187559017345 -0.6719867238557361 -0.3025366727477081 0.00011503667274759266 -0.3025366727477081 C 0.5299164330123189 -0.3025366727477081 0.9951822559404233 -0.5824208975428813 1.1856829860106273 -1.0157640437834987 C 1.3250499150444752 -1.3328626322125554 1.2797829843182518 -1.66215510795287 1.0648944796255342 -1.8966573653490724 L 1.1496189891042206 -1.9743646377901487 C 1.3966027254935511 -1.7052938602332606 1.4495195949574948 -1.3296416053756195 1.2912291332566501 -0.9695193013389196 C 1.0822074988740629 -0.49436032455451073 0.575298400411288 -0.1875 0.00011503667274759266 -0.1875 Z" fill="#ff0000" transform="matrix(1,0,0,1,0,0)" fill-rule="nonzero"></path></g><g clip-path="url(#SvgjsClipPath10374df25a90-e1b2-4b11-9209-f3f7a77b4b7c)"><path d=" M -0.6532357461978601 -1.5954913560955728 C -0.6741471755107704 -1.5954625240458689 -0.6934267947218833 -1.6067852317350322 -0.7035873664574075 -1.6250623072451682 C -0.7137479381929317 -1.643339382755306 -0.7131885086131386 -1.6656909926500092 -0.7021263321156367 -1.683436892411195 C -0.6331043284670106 -1.7943322449399857 -0.5468268239062315 -1.9227706900628019 -0.45853617757236387 -2.0458024115664752 C -0.53906184849576 -2.0555805287500304 -0.625339353056541 -2.0624252107785193 -0.7158732145089861 -2.069557484488877 C -0.7939831153046796 -2.0756544281445053 -0.8730133094823547 -2.0819239268092558 -0.9496852518687028 -2.0902640855834638 C -0.9739598456311047 -2.0928832120735485 -0.993935837991278 -2.110542231275318 -0.9995127967479043 -2.1343122387832594 C -1.0050897555045306 -2.1580822462912015 -0.9950523001860162 -2.1827830705825266 -0.9744756548458344 -2.195925269502233 C -0.7627506586536762 -2.3312659149899124 -0.48815812080489696 -2.414494947722879 -0.15823294336447136 -2.443254115909806 C -0.1375245029856358 -2.4454889137890268 -0.11722589860726029 -2.436353696652826 -0.10516581626166133 -2.419371699176022 C -0.09310573391606236 -2.4023897016992177 -0.09116875507684452 -2.380214633608866 -0.10010192613699065 -2.3613988880936074 C -0.109035097197141 -2.342583142578348 -0.12744246676941917 -2.33006698193441 -0.14822475283542236 -2.328677589853088 C -0.35398140703349257 -2.3143823978095317 -0.5560298781084961 -2.2666290187804585 -0.7464154511235048 -2.1872975190461545 L -0.7066702806891694 -2.184134010545593 C -0.5777141705389885 -2.173953265007421 -0.45589033409916435 -2.1644052211693605 -0.34626038497060074 -2.1458843168569794 C -0.32656298039614184 -2.1425631516714416 -0.3099991284855761 -2.1292602055288254 -0.302505690596115 -2.110743556972559 C -0.2950122527066579 -2.092226908416291 -0.2976623654120001 -2.0711483299813604 -0.30950616802770736 -2.055062863722665 C -0.3749620348211522 -1.9661970340250599 -0.44128067666020687 -1.8715218523536963 -0.5018474848618747 -1.7809304725648765 C -0.3356074244862317 -1.8528802066884926 -0.17935972484819018 -1.9460063102713236 -0.036984290288386346 -2.057996298877731 C -0.019263170325790835 -2.07260785642309 0.005451890239408952 -2.0752760880303116 0.02588325136823255 -2.0647834625698462 C 0.16536521707483187 -1.9930005787752763 0.32135494532072384 -1.9230582817446695 0.43311307289512135 -1.874972952536128 C 0.3856255708095524 -1.9556051145782098 0.3280663492494047 -2.029863855086634 0.26182346717378513 -2.095958400884476 C 0.24384962669399846 -2.112730445532459 0.23852209848923156 -2.1390715720453475 0.24856553806196158 -2.161510149202016 C 0.2586089776346916 -2.1839487263586843 0.2818028573909539 -2.1975237565462256 0.30628514119077255 -2.1952925678021207 C 0.45807603088137405 -2.1816032037451443 0.5858817743040763 -2.1722852332525786 0.7487737029148338 -2.160091345941323 L 0.8005402056513029 -2.156237617404275 C 0.68750221323933 -2.210489647552445 0.5688897563383004 -2.2522643762756367 0.4468024369520971 -2.2808223339900424 C 0.42094062323602266 -2.2870186770709546 0.40269855185213843 -2.310136399867743 0.402685872953354 -2.336730156945428 C 0.40393690668872373 -2.3780626249375416 0.4007163454256282 -2.4194092318122777 0.39308031077891914 -2.460049470130972 C 0.2906757769201791 -2.403328999415853 0.17970318060586 -2.363695929303596 0.0645355734114672 -2.3427120639283077 C 0.033775831193795014 -2.337370913443227 0.00437148980916402 -2.357542657277933 -0.0017182252298559852 -2.38816299366644 C -0.007807940268875768 -2.418783330054949 0.011640705820007202 -2.4486708643611834 0.04210342222566443 -2.4555055215574364 C 0.16926650975500412 -2.4794958866041252 0.2908697530457889 -2.5268889709981277 0.40073024951664515 -2.5952750789459027 C 0.41552789993000583 -2.6034864777492768 0.4331908106052129 -2.604764526620122 0.44901644535214746 -2.5987689605150166 C 0.4648420800990818 -2.59277339440991 0.4772242798768722 -2.580112709155961 0.4828664338585078 -2.5641576589676474 C 0.5043520908757428 -2.5056607169419585 0.51601316574279 -2.44401250114483 0.5173774356828198 -2.381709495989783 C 0.7156763143729026 -2.3342387350819926 0.9024021750340596 -2.247369936926095 1.0664474747076307 -2.126270564153496 C 1.08625239135332 -2.1105399629098645 1.0934576658044501 -2.0837178906592255 1.0842013950057066 -2.0601805163424256 C 1.0749451242069652 -2.036643142025623 1.0513995274601644 -2.021914109010127 1.0261846392459337 -2.023887925408036 C 0.9164396534446206 -2.0323431208549936 0.8237776135463397 -2.0391878028834824 0.740260989131504 -2.0453422648754844 C 0.6303434483210695 -2.0534523503041986 0.5363584866861928 -2.0604695873418084 0.44024534660548187 -2.0683495994250265 C 0.5074930033419784 -1.978751682365651 0.5661886871693564 -1.8830438252061805 0.6155612358729889 -1.7824834676469732 C 0.6257814382976705 -1.7610735782754268 0.6218079868397526 -1.7355852589587064 0.6055558273826689 -1.71830222642721 C 0.5893036679255854 -1.7010191938957149 0.5641075309796477 -1.6954877003287754 0.5421103203235778 -1.7043735668512778 C 0.5391193668321377 -1.705638970251503 0.25555396850903667 -1.8202730146445938 0.006557090346623218 -1.9459505796214651 C -0.189306205176619 -1.8020860725306125 -0.4039696444642513 -1.685755209425856 -0.6314362967121704 -1.6002078596782277 C -0.6383254373594264 -1.5972283966982004 -0.6457311276297887 -1.5956261101489402 -0.6532357461978582 -1.5954913560955728 Z" fill="#1a702d" transform="matrix(1,0,0,1,0,0)" fill-rule="nonzero"></path></g><g clip-path="url(#SvgjsClipPath10374df25a90-e1b2-4b11-9209-f3f7a77b4b7c)"><path d=" M -0.09530788337147467 -2.1948899394475054 L -0.2096543360826979 -2.207601491786127 C -0.19033396823468607 -2.3935918372800185 -0.23815336460138092 -2.5803608533794575 -0.3444773165430113 -2.73418186128876 C -0.3623478446830688 -2.758558754765856 -0.35830206495731054 -2.792608640035433 -0.33521686438682075 -2.812119207075334 L -0.19055824840657754 -2.9345182268788945 C -0.16630244735968125 -2.955016994413782 -0.13002332005215433 -2.951978714057297 -0.1095149124558179 -2.9277310631867803 C 0.05569347383895207 -2.7288673913682997 0.1342226148959489 -2.4720418759589418 0.1084795824010889 -2.214791283832861 L -0.005406723619142628 -2.230838899681165 C 0.014955934378728442 -2.435910438729432 -0.04071990764732947 -2.64131745149837 -0.1618565985560263 -2.808035405192789 L -0.22150311337571238 -2.75759182419292 C -0.11852229417329818 -2.589078760784105 -0.07415417111340106 -2.3912422302941514 -0.09530788337147467 -2.1948899394475054 Z" fill="#1a702d" transform="matrix(1,0,0,1,0,0)" fill-rule="nonzero"></path></g></g></g></g><defs><clipPath id="SvgjsClipPath1039"><path d=" M -1.380900219663487 -2.9483801459449923 h 2.761800439326974 v 2.7608801459449923 h -2.761800439326974 Z"></path></clipPath><clipPath id="SvgjsClipPath10374df25a90-e1b2-4b11-9209-f3f7a77b4b7c"><path d=" M -1.380900219663487 -2.9483801459449923 L 1.380900219663487 -2.9483801459449923 L 1.380900219663487 -0.1875 L -1.380900219663487 -0.1875 Z"></path></clipPath></defs></svg>